<?xml version="1.0" encoding="utf-8"?>
<!-- Generator: Adobe Illustrator 16.0.0, SVG Export Plug-In . SVG Version: 6.00 Build 0)  -->
<!DOCTYPE svg PUBLIC "-//W3C//DTD SVG 1.1//EN" "http://www.w3.org/Graphics/SVG/1.1/DTD/svg11.dtd">
<svg version="1.1" xmlns="http://www.w3.org/2000/svg" xmlns:xlink="http://www.w3.org/1999/xlink" x="0px" y="0px" width="64px"
	 height="50px" viewBox="0 0 64 50" enable-background="new 0 0 64 50" xml:space="preserve">
<g id="Calque_2">
</g>
<g id="Calque_3">
	<g>
		<defs>
			<rect id="SVGID_1_" x="2.693" y="1.812" width="58.224" height="46.377"/>
		</defs>
		<clipPath id="SVGID_2_">
			<use xlink:href="#SVGID_1_"  overflow="visible"/>
		</clipPath>
		<path clip-path="url(#SVGID_2_)" fill="#009EE0" d="M45.238,38.438c0,0.152-0.137,0.279-0.313,0.279l-3.057,0.012
			c-0.174,0-0.312-0.127-0.312-0.277l-0.014-3.127c-0.004-0.156,0.138-0.28,0.306-0.282l3.063-0.009c0.171,0,0.31,0.124,0.312,0.278
			L45.238,38.438z"/>
		<path clip-path="url(#SVGID_2_)" fill="#E42438" d="M55.853,38.438c0,0.153-0.137,0.279-0.313,0.279l-3.057,0.012
			c-0.174,0-0.313-0.126-0.313-0.277l-0.014-3.127c-0.004-0.156,0.139-0.28,0.307-0.282l3.063-0.009
			c0.171,0,0.311,0.124,0.313,0.279L55.853,38.438z"/>
		<path clip-path="url(#SVGID_2_)" fill="#FFFFFF" d="M18.875,17.541c-0.245-1.215,2.768-9.962,3.134-10.736
			c0.365-0.772-0.082-1.505-0.732-0.895c-0.432,0.404-3.729,8.61-2.913,11.875c0.45,1.287,1.059,1.088,1.059,1.088
			s-0.045-0.228-0.228-0.411C19.012,18.279,18.979,18.051,18.875,17.541"/>
		<path clip-path="url(#SVGID_2_)" fill="#009EE0" d="M27.884,22.947c-0.241-0.074-0.484-0.047-0.749,0.057l-0.054,0.016
			c-0.511,0.202-0.994,0.782-1.196,1.442c-0.672,2.196-1.134,2.78-1.661,3.011l-0.09,0.039l0.01-0.099
			c0.068-0.674,0.225-2.845,0.056-3.951c-0.054-0.353-0.174-0.4-0.283-0.4c-0.551,0-2.073,1.366-5.464,4.455
			c-0.495,0.451-0.976,0.861-1.47,1.253c-0.015,0.012-0.026,0.022-0.038,0.033c-0.015,0.014-0.029,0.028-0.047,0.043l-0.086,0.069
			v14.23h11.146V22.974l-0.021-0.008C27.91,22.956,27.897,22.951,27.884,22.947"/>
		<path clip-path="url(#SVGID_2_)" fill="#FFFFFF" d="M27.958,16.835c-0.048,0.021-0.095,0.051-0.133,0.096
			c-1.431,1.232-3.053,1.346-4.086,0.946c0.648-0.429,1.232-0.855,1.417-1.096c0.166-0.216,0.82-1.3-0.422-1.761
			c-1.756-0.653-3.579,1.378-2.338,2.864c-0.619,0.429-1.245,0.79-1.647,0.902c-0.133,0.037-0.392,0.138-0.452,0.138
			c-0.062,0-0.222,0.046-0.062,0.252c0.16,0.206,1.403-0.03,1.784-0.244c0.257-0.144,0.588-0.339,0.938-0.557
			c0.01,0.007,0.018,0.014,0.028,0.02c1.922,1.236,4.133-0.222,4.973-0.903V16.835z M23.365,16.15
			c0.176-0.151,0.394-0.259,0.59-0.259c0.123,0,0.238,0.042,0.329,0.143c0.002,0.003,0.008,0.009,0.006,0.03
			c-0.017,0.192-0.518,0.701-1.251,1.275C22.78,16.964,23,16.464,23.365,16.15"/>
		<path clip-path="url(#SVGID_2_)" fill="#009EE0" d="M24.29,16.064c0.002-0.021-0.004-0.027-0.006-0.03
			c-0.091-0.101-0.206-0.143-0.329-0.143c-0.196,0-0.413,0.108-0.59,0.259c-0.365,0.313-0.585,0.813-0.327,1.189
			C23.772,16.765,24.273,16.256,24.29,16.064"/>
		<path clip-path="url(#SVGID_2_)" fill="#009EE0" d="M16.811,1.812v25.43l0.098-0.083c0.859-0.72,1.699-1.498,2.511-2.25
			c0.881-0.816,1.713-1.587,2.441-2.161c0.781-0.614,1.472-0.926,2.056-0.926c0.699,0,1.204,0.454,1.433,1.282
			c0.609-0.798,1.147-1.237,1.69-1.381l0.059-0.016c0.287-0.076,0.576-0.084,0.858-0.026v-1.335v-2.852
			c-0.839,0.681-3.051,2.139-4.973,0.903c-0.01-0.006-0.018-0.013-0.028-0.02c-0.35,0.217-0.681,0.412-0.938,0.557
			c-0.381,0.213-1.624,0.45-1.784,0.244c-0.161-0.207,0-0.252,0.061-0.252c0.061,0,0.319-0.101,0.452-0.139
			c0.402-0.111,1.028-0.473,1.647-0.901c-1.241-1.485,0.583-3.517,2.338-2.864c1.242,0.461,0.588,1.545,0.422,1.761
			c-0.186,0.24-0.769,0.667-1.417,1.095c1.033,0.4,2.655,0.287,4.086-0.945c0.039-0.045,0.085-0.076,0.133-0.096v-2.928V1.812
			H16.811z M18.364,17.785c-0.816-3.264,2.479-11.47,2.913-11.874c0.65-0.61,1.098,0.122,0.732,0.894
			c-0.367,0.773-3.379,9.521-3.134,10.736c0.104,0.511,0.137,0.739,0.32,0.922c0.183,0.183,0.228,0.411,0.228,0.411
			S18.814,19.072,18.364,17.785"/>
		<path clip-path="url(#SVGID_2_)" fill="#707173" d="M42.161,22.397c-0.241,0.06-0.363,0.218-0.337,0.435
			c0.034,0.277,0.308,0.583,0.505,0.554c0.047-0.007,0.126-0.01,0.229-0.01c0.42,0,1.146,0.056,1.553,0.121
			c0.271,0.042,0.833,0.239,1.027,0.68c0.142,0.318,0.066,0.702-0.222,1.14c-0.866,1.319-2.667,1.382-3.345,1.407
			c-0.115,0.004-0.198,0.007-0.246,0.015c-0.132,0.02-0.212,0.109-0.203,0.228c0.014,0.176,0.248,0.425,0.726,0.425h0
			c1.083,0,4.626-0.202,4.717-2.774c0.02-0.571-0.153-1.051-0.513-1.424c-0.782-0.809-2.235-0.896-2.823-0.896
			C42.821,22.295,42.422,22.333,42.161,22.397"/>
		<path clip-path="url(#SVGID_2_)" fill="#707173" d="M60.381,31.124l-0.086-0.042c-1.557-0.753-6.727-3.306-7.888-4.517
			c-0.173-0.18-0.369-0.363-0.575-0.558c-1.338-1.258-3.171-2.98-1.814-6.874c0.517-1.479,0.974-2.554,1.34-3.417
			c0.758-1.782,1.177-2.764,1.064-4.813c-0.022-0.415-0.359-0.854-0.655-0.854c-0.121,0-0.332,0.076-0.389,0.583l-0.014,0.131
			c-0.121,1.081-0.321,2.891-1.585,5.682L49.74,16.53c-1.346,2.971-3.189,7.041,1.101,10.396c4.383,3.427,9.191,4.741,9.681,4.795
			c0.047,0.005,0.089,0.007,0.125,0.007c0.137,0,0.215-0.038,0.232-0.112C60.917,31.447,60.56,31.213,60.381,31.124"/>
		<path clip-path="url(#SVGID_2_)" fill="#707173" d="M51.138,20.296c-0.045,0.173,0.021,0.366,0.204,0.593
			c0.079,0.098,0.242,0.143,0.514,0.143c0.318,0,0.735-0.061,1.177-0.126c0.2-0.029,0.401-0.059,0.593-0.083
			c0.739-0.09,1.641-0.17,2.365-0.235l0.473-0.042c0.188-0.017,0.434-0.041,0.704-0.067c0.827-0.082,1.959-0.193,2.377-0.193
			l0.063,0.001c0.195,0,0.225-0.1,0.229-0.143c0.021-0.23-0.504-0.612-1.146-0.729c-0.141-0.026-0.404-0.039-0.784-0.039
			c-1.833,0-5.797,0.301-6.334,0.521C51.327,19.997,51.181,20.131,51.138,20.296"/>
		<path clip-path="url(#SVGID_2_)" fill="#707173" d="M15.724,28.112c-0.309,0.228-0.611,0.436-0.897,0.616
			c-0.561,0.356-1.764,0.933-2.268,1.088c-0.62,0.221-1.326,0.337-2.042,0.337c-1.856,0-3.6-0.747-4.664-1.997
			c-1.011-1.188-1.388-2.787-1.091-4.622c0.314-1.935,1.951-5.885,6.09-8.41c1.052-0.47,0.826-1.019,0.816-1.042l-0.02-0.045
			L11.6,14.05c-5.172,1.399-7.277,5.437-8.131,8.578c-0.776,2.854,0.025,4.867,0.834,6.053c1.042,1.528,2.743,2.592,4.441,2.777
			c0.536,0.058,1.064,0.111,1.632,0.111c0.678,0,1.314-0.079,1.932-0.237l0.017-0.003c0.828-0.211,1.667-0.568,2.561-1.091
			c0.293-0.171,0.598-0.364,0.905-0.574c0.333-0.226,0.632-0.452,1.006-0.744l0.022-0.019v-1.667l-0.131,0.108
			C16.352,27.622,16.061,27.863,15.724,28.112"/>
		<path clip-path="url(#SVGID_2_)" fill="#707173" d="M28.695,24.829c0.147,0.969,0.631,1.886,0.994,1.887
			c0.038,0,0.072-0.01,0.104-0.029c0.33-0.194,0.245-0.758,0.14-1.273c-0.03-0.146-0.064-0.356-0.103-0.598
			c-0.107-0.661-0.254-1.567-0.462-2.057c-0.124-0.291-0.569-0.829-1.239-1.037l-0.034-0.011c-0.021-0.007-0.031-0.01-0.071-0.019
			l-0.07-0.015l0.008,1.313l0.036,0.014C28.485,23.191,28.713,23.784,28.695,24.829"/>
		<path clip-path="url(#SVGID_2_)" fill="#707173" d="M48.99,31.047c-0.513,0-1.169,0.083-1.683,0.154
			c-0.294,0.041-1.024,0.154-1.948,0.297c-1.673,0.258-3.963,0.611-4.797,0.714c-0.182,0.022-0.446,0.054-0.768,0.091
			c0.606-3.316,1.297-7.17,1.392-7.865c0.036-0.265-0.079-0.619-0.272-0.841c-0.103-0.117-0.213-0.179-0.32-0.179
			c-0.113,0-0.271,0.069-0.383,0.399c-0.123,0.366-0.932,4.217-1.792,8.643c-0.751,0.085-3.062,0.342-4.48,0.477
			c1.005-4.851,1.985-9.563,2.375-11.289c3.017-3.413,5.85-7.855,7.054-11.06c0.223-0.593,2.136-5.829,0.795-7.081
			c-0.21-0.195-0.439-0.294-0.682-0.294c-3.024,0-7.427,15.573-7.471,15.73c-0.097,0.341-0.259,0.938-0.46,1.687
			c-0.625,0.739-1.192,1.388-1.648,1.91c-0.542,0.62-0.9,1.029-1.017,1.203c-0.219,0.321-0.459,0.886-0.342,1.107
			c0.024,0.044,0.072,0.097,0.169,0.097c0.165,0,0.426-0.157,0.797-0.481c0.446-0.39,0.905-0.821,1.368-1.285
			c-0.583,2.248-1.527,5.988-1.719,7.374c-0.056,0.406-0.158,1.05-0.287,1.866l-0.096,0.604c-0.403,0.021-0.984,0.067-1.547,0.109
			c-0.812,0.063-1.65,0.126-1.965,0.126c-0.491,0-0.816,0.153-0.869,0.41c-0.031,0.146-0.051,0.332,0.054,0.462
			c0.079,0.097,0.211,0.144,0.404,0.144h0.022c1.19-0.03,2.445-0.087,3.731-0.167c-0.212,1.372-0.512,3.357-0.702,5.043
			c-0.092,0.82-0.306,2.806-0.31,3.505c-0.001,0.157,0.017,0.207,0.044,0.235l0.03,0.021h0.023c0.05,0,0.083-0.046,0.116-0.09
			c0.005-0.008,0.012-0.018,0.018-0.025l0.055,0.007c0.148-0.648,0.809-3.843,1.575-7.542l0.255-1.229
			c1.558-0.114,3.066-0.256,4.485-0.424c-0.896,4.663-2.357,12.627-2.222,14.216c0.012,0.123,0.132,0.363,0.307,0.363h0
			c0.219,0,0.383-0.363,0.498-1.111c0.349-2.264,1.11-5.47,1.566-7.386c0.139-0.586,0.249-1.049,0.306-1.313
			c0.107-0.499,0.458-2.347,0.936-4.944c0.751-0.104,1.446-0.212,2.064-0.32c3.58-0.636,7.903-1.454,8.177-1.755l0.024-0.025
			L49.84,31.3C49.773,31.127,49.504,31.047,48.99,31.047 M37.238,18.569c2.636-8.46,4.359-11.636,5.698-13.625
			c0.304-0.451,0.439-0.5,0.484-0.5c0.013,0,0.03,0.003,0.048,0.033c0.317,0.497-0.722,4.677-2.387,8.249
			C40.346,14.304,39.053,16.269,37.238,18.569"/>
		<path clip-path="url(#SVGID_2_)" fill="#FFFFFF" d="M27.969,21.665c-0.284-0.061-0.575-0.054-0.874,0.024l-0.018,0.007
			c-0.551,0.145-1.131,0.612-1.726,1.389c-0.229-0.828-0.735-1.281-1.434-1.281c-0.584,0-1.275,0.311-2.056,0.926
			c-0.728,0.574-1.556,1.34-2.431,2.152c-0.809,0.749-1.644,1.523-2.502,2.243c-0.02,0.016-0.034,0.032-0.05,0.049
			c-0.011,0.012-0.022,0.024-0.039,0.04l-0.085,0.072v1.664l0.094-0.075l0.067-0.06c0.021-0.015,0.03-0.025,0.041-0.037
			c0.007-0.008,0.014-0.015,0.028-0.025c0.497-0.396,0.978-0.805,1.47-1.253c3.391-3.09,4.914-4.456,5.464-4.456
			c0.109,0,0.229,0.048,0.283,0.401c0.169,1.105,0.012,3.277-0.056,3.952l-0.01,0.098l0.09-0.04c0.527-0.229,0.989-0.813,1.661-3.01
			c0.198-0.647,0.705-1.244,1.229-1.451l0.021-0.006c0.265-0.105,0.508-0.13,0.748-0.057c0.014,0.004,0.028,0.01,0.053,0.019
			l0.079,0.031v-1.306L27.969,21.665z"/>
		<path clip-path="url(#SVGID_2_)" fill="#FFFFFF" d="M50.499,38.438c0,0.153-0.137,0.279-0.312,0.279l-3.058,0.012
			c-0.174,0-0.312-0.126-0.312-0.277l-0.014-3.127c-0.003-0.156,0.139-0.28,0.307-0.282l3.063-0.009c0.171,0,0.31,0.124,0.312,0.279
			L50.499,38.438z"/>
	</g>
</g>
</svg>
